<?xml version="1.0" encoding="UTF-8"?>
<!DOCTYPE svg PUBLIC "-//W3C//DTD SVG 1.1//EN" "http://www.w3.org/Graphics/SVG/1.1/DTD/svg11.dtd">
<!-- Creator: CorelDRAW (Evaluation Version) -->
<svg xmlns="http://www.w3.org/2000/svg" xml:space="preserve" width="226.196mm" height="57.0311mm" version="1.1" style="shape-rendering:geometricPrecision; text-rendering:geometricPrecision; image-rendering:optimizeQuality; fill-rule:evenodd; clip-rule:evenodd"
viewBox="0 0 2836.7 715.22"
 xmlns:xlink="http://www.w3.org/1999/xlink"
 xmlns:xodm="http://www.corel.com/coreldraw/odm/2003">
 <defs>
  <style type="text/css">
   <![CDATA[
    .fil3 {fill:none;fill-rule:nonzero}
    .fil6 {fill:black}
    .fil5 {fill:black;fill-rule:nonzero}
    .fil0 {fill:#00BDCB;fill-rule:nonzero}
    .fil4 {fill:#00D4B3;fill-rule:nonzero}
    .fil1 {fill:#0188F7;fill-rule:nonzero}
    .fil2 {fill:#FAFAFA;fill-rule:nonzero}
   ]]>
  </style>
   <clipPath id="id0" style="clip-rule:nonzero">
    <path d="M1277.53 313.83l288.34 0c41.15,0 74.81,33.66 74.81,74.81l0 115.76c0,41.15 -33.66,74.81 -74.81,74.81l-288.34 0c-41.15,0 -74.81,-33.66 -74.81,-74.81l0 -115.76c0,-41.15 33.66,-74.81 74.81,-74.81z"/>
   </clipPath>
   <!-- Прозрачная дырка внутри «O»: белое = видно, чёрное = прозрачно -->
   <mask id="oHole">
    <rect x="0" y="0" width="2836.7" height="715.22" fill="white"/>
    <path fill="black" d="M1277.53 358.83l288.34 0c16.40,0 29.81,13.41 29.81,29.81l0 115.76c0,16.40 -13.41,29.81 -29.81,29.81l-288.34 0c-16.40,0 -29.81,-13.41 -29.81,-29.81l0 -115.76c0,-16.40 13.41,-29.81 29.81,-29.81z"/>
   </mask>
 </defs>
 <g id="Layer_x0020_1" mask="url(#oHole)">
  <metadata id="CorelCorpID_0Corel-Layer"/>
  <path class="fil0" d="M1598.82 224.77c93.53,1.07 128.13,79.85 129.27,120.92 0.08,49.35 -1.11,159.5 -0.5,210.97 -11.87,76.33 -68.41,109.64 -119.44,113.3 -43.37,0.12 -280.57,-0.23 -379.65,-0.14 -50.15,-4.34 -99.64,-37.14 -114.8,-99.65 -2.58,-21.54 -2.64,-163.99 -2.64,-177.1 -73.68,0.31 -259.97,-16.12 -315,35.89 -48.7,49.84 -220.1,282.3 -259.97,286.1 -19.05,0.5 -39.43,-0.22 -58.57,-0.74 5.59,-28.6 221.46,-271.66 242.34,-294.44 43.7,-50.29 58.32,-74.59 132.09,-89.02 45.31,-6.21 247.98,3.11 262.41,-9.13 12.29,-46 38.1,-80.79 102.04,-95.31 39.7,-1.63 336.11,-1.56 382.42,-1.63l0.01 -0z"/>
  <path class="fil0" d="M1277.53 313.83l288.34 0c41.15,0 74.81,33.66 74.81,74.81l0 115.76c0,41.15 -33.66,74.81 -74.81,74.81l-288.34 0c-41.15,0 -74.81,-33.66 -74.81,-74.81l0 -115.76c0,-41.15 33.66,-74.81 74.81,-74.81z"/>
  <path class="fil1" d="M1211.24 8.32c48.4,27.13 47.49,81.01 29.36,107.2 -32.16,49.59 -111.54,45.51 -136.99,-5.21 -19.13,-0.77 -110.24,1.16 -154.36,1.2 -45.91,1.24 -80.54,21.82 -111.41,54.28 -145.93,156.46 -268.17,330.75 -410.51,485.22 -30.08,-3.48 -427.33,-543.09 -427.33,-544.73 66.64,-0.56 133.34,-0.36 199.97,-1.14 53.25,-0.6 53.25,-0.6 75.42,14.77 42.64,50.76 222.38,295.98 245.12,318.86 25.47,-35.06 244.87,-287.51 274.37,-322.12 27.2,-30.86 47.99,-43.62 85.48,-58.77 45.81,-17.96 171.79,-10.55 220.03,-10.33 24.9,-48.53 69.02,-56.48 110.85,-39.23l-0.01 0z"/>
  <path class="fil2" d="M2369.4 228.9l178.73 217.37 175.4 -218.14 113.17 1.74c-4.69,21.19 -185.76,230.42 -225,263.95 -31.76,31.37 -19.43,121.03 -20.54,167.41 -6.03,6.03 -87.85,8.37 -96.22,0 -0.94,-59.11 9.45,-109.1 -17.19,-164.14l-228.35 -267.21c46.33,-16.21 71.5,-18.49 120,-0.97z"/>
  <path class="fil3" d="M2249.4 229.87c46.33,-16.21 71.5,-18.49 120,-0.97"/>
  <path class="fil2" d="M1844.59 229.86c10.45,-0.06 95.81,-3.73 102.86,3.32 8.13,109.19 5.02,200.4 2.8,296.3 0.21,15.42 -0.14,26.67 10.46,38.83 60.3,20.26 355.36,-3 368.31,9.95 1.26,27.78 0.18,58.39 0,86.27 -94.03,1.22 -389.08,29.53 -451.26,-23.23 -43.35,-45.47 -34.95,-377.85 -33.18,-411.45z"/>
  <path class="fil4" d="M1079.39 589.45c4.62,44.89 -35.97,78.68 -73.99,78.58 -30.97,-1.21 -51.28,-13.78 -66.66,-40 -68.98,-1.1 -137.97,-2.19 -209.04,-3.32 0,-16.39 24.56,-52.45 39.82,-59.73 37.03,-2.33 119.09,0.24 141.47,-0.28 19.17,0.36 26.52,-1.8 40.08,-16.73 48.77,-47.43 123.02,-13.83 128.32,41.47l0 0z"/>
  <ellipse class="fil4" cx="1176.02" cy="74.23" rx="56.56" ry="54.25"/>
  <ellipse class="fil1" cx="1006.67" cy="597.03" rx="56.56" ry="54.25"/>
  <path class="fil2" d="M2369.4 228.9l178.73 217.37 175.4 -218.14 113.17 1.74c-4.69,21.19 -185.76,230.42 -225,263.95 -31.76,31.37 -19.43,121.03 -20.54,167.41 -6.03,6.03 -87.85,8.37 -96.22,0 -0.94,-59.11 9.45,-109.1 -17.19,-164.14l-228.35 -267.21c46.33,-16.21 71.5,-18.49 120,-0.97z"/>
  <path class="fil2" d="M2369.4 228.9l178.73 217.37 175.4 -218.14 113.17 1.74c-4.69,21.19 -185.76,230.42 -225,263.95 -31.76,31.37 -19.43,121.03 -20.54,167.41 -6.03,6.03 -87.85,8.37 -96.22,0 -0.94,-59.11 9.45,-109.1 -17.19,-164.14l-228.35 -267.21c46.33,-16.21 71.5,-18.49 120,-0.97z"/>
  <path class="fil2" d="M2369.4 228.9c-49.41,-12.99 -72.77,-11.62 -119.1,0.97 76.12,89.07 152.1,176.34 228.22,265.41 26.64,55.05 15.47,106.84 16.41,165.95 8.37,8.37 90.19,6.02 96.22,-0 1.11,-46.38 -11.22,-136.04 20.54,-167.41 39.24,-33.53 220.31,-242.76 225,-263.95 -46.54,-14.71 -74.3,-14.39 -113.17,-1.74 -58.47,72.71 -116.93,145.43 -175.4,218.14l-178.73 -217.37z"/>
 </g>
</svg>
